<svg xmlns="http://www.w3.org/2000/svg" xmlns:xlink="http://www.w3.org/1999/xlink" id="Layer_1" viewBox="0 0 134 82"><style>.st0{fill:#fff}.st1{fill:none;stroke:#000;stroke-linecap:square;stroke-miterlimit:10}.st2{clip-path:url(#SVGID_2_);fill:#fff}.st3{clip-path:url(#SVGID_4_);fill:#ff0}.st4{clip-path:url(#SVGID_6_);fill:none;stroke:#000;stroke-linecap:square;stroke-miterlimit:10}.st5{clip-path:url(#SVGID_8_);fill:#fff}.st6{clip-path:url(#SVGID_10_);fill:#c800c8}.st7{clip-path:url(#SVGID_12_);fill:none;stroke:#000;stroke-linecap:square;stroke-miterlimit:10}</style><path class="st0" d="M0 0h134v82H0z"/><path class="st1" d="M93 41H41h52z"/><defs><circle id="SVGID_1_" cx="93" cy="41" r="11"/></defs><clipPath id="SVGID_2_"><use xlink:href="#SVGID_1_" overflow="visible"/></clipPath><circle class="st2" cx="93" cy="41" r="11"/><defs><circle id="SVGID_3_" cx="93" cy="41" r="11"/></defs><clipPath id="SVGID_4_"><use xlink:href="#SVGID_3_" overflow="visible"/></clipPath><path class="st3" d="M82 30h22v22H82z"/><g><defs><circle id="SVGID_5_" cx="93" cy="41" r="11"/></defs><clipPath id="SVGID_6_"><use xlink:href="#SVGID_5_" overflow="visible"/></clipPath><path class="st4" d="M82 30h22v22H82z"/></g><circle class="st1" cx="93" cy="41" r="11"/><g><defs><path id="SVGID_7_" transform="rotate(-45.001 41 41)" d="M33.2 33.2h15.6v15.6H33.2z"/></defs><clipPath id="SVGID_8_"><use xlink:href="#SVGID_7_" overflow="visible"/></clipPath><path class="st5" d="M41 30l11 11-11 11-11-11z"/><defs><path id="SVGID_9_" transform="rotate(-45.001 41 41)" d="M33.2 33.2h15.6v15.6H33.2z"/></defs><clipPath id="SVGID_10_"><use xlink:href="#SVGID_9_" overflow="visible"/></clipPath><path class="st6" d="M30 30h22v22H30z"/><g><defs><path id="SVGID_11_" transform="rotate(-45.001 41 41)" d="M33.2 33.2h15.6v15.6H33.2z"/></defs><clipPath id="SVGID_12_"><use xlink:href="#SVGID_11_" overflow="visible"/></clipPath><path class="st7" d="M30 30h22v22H30z"/></g><path class="st1" d="M41 30l11 11-11 11-11-11z"/></g><g><path class="st0" d="M69 44h7v11h-7z"/><path d="M75.3 45.5v.3c-.6.1-1.1.2-1.5.4-.4.2-.8.5-1.1.8-.4.4-.7.8-.9 1.2-.2.5-.5 1-.6 1.6.7-.5 1.3-.7 2-.7.6 0 1.2.3 1.6.8.5.5.7 1.2.7 2s-.2 1.5-.7 2.1c-.6.8-1.3 1.2-2.2 1.2-.6 0-1.2-.2-1.6-.6-.9-.8-1.3-1.9-1.3-3.2 0-.8.2-1.6.5-2.4.3-.8.8-1.4 1.4-2 .6-.6 1.2-1 1.8-1.2.6-.2 1.1-.3 1.6-.3h.3zM71 50.3c-.1.6-.1 1.1-.1 1.5 0 .4.1.9.2 1.4.2.5.4.9.7 1.2.2.2.5.3.9.3s.7-.2 1.1-.6c.3-.4.5-.9.5-1.6 0-.8-.2-1.5-.5-2-.3-.6-.8-.9-1.3-.9-.2 0-.3 0-.5.1-.3.2-.6.4-1 .6z"/><path class="st0" d="M57 46h8v8h-8z"/><path d="M62.4 47.7h1.2l-.7 3.2c-.1.6-.2 1-.3 1.1.2.8.5 1.2.8 1.2.4 0 .6-.3.6-.8h.2c0 .5-.1 1-.3 1.3-.2.3-.4.5-.7.5-.2 0-.4-.1-.5-.3-.1-.2-.2-.6-.4-1.2-.5 1-1.2 1.5-2.3 1.5-.7 0-1.3-.3-1.8-.9-.4-.6-.6-1.4-.6-2.5s.2-1.9.7-2.5c.5-.6 1-.9 1.7-.9.5 0 .9.2 1.2.5.3.3.6.9.8 1.6l.4-1.8zm-.6 2.7c-.2-.7-.4-1.3-.7-1.7-.3-.4-.6-.6-.9-.6-.8 0-1.3 1-1.3 2.9s.4 2.8 1.2 2.8c.7 0 1.2-.8 1.5-2.5l.2-.9z"/></g></svg>