<svg xmlns="http://www.w3.org/2000/svg" xmlns:xlink="http://www.w3.org/1999/xlink" id="Layer_1" viewBox="0 0 186 82"><style>.st0{fill:#fff}.st1{fill:none;stroke:#000;stroke-linecap:square;stroke-miterlimit:10}.st2{clip-path:url(#SVGID_2_);fill:#fff}.st3{clip-path:url(#SVGID_4_);fill:#0000fa}.st4{clip-path:url(#SVGID_6_);fill:none;stroke:#000;stroke-linecap:square;stroke-miterlimit:10}.st5{clip-path:url(#SVGID_8_);fill:#fff}.st6{clip-path:url(#SVGID_10_);fill:#ff0}.st7{clip-path:url(#SVGID_12_);fill:none;stroke:#000;stroke-linecap:square;stroke-miterlimit:10}.st8{clip-path:url(#SVGID_14_);fill:#fff}.st9{clip-path:url(#SVGID_16_);fill:#0000fa}.st10{clip-path:url(#SVGID_18_);fill:none;stroke:#000;stroke-linecap:square;stroke-miterlimit:10}</style><path class="st0" d="M0 0h186v82H0z"/><path class="st1" d="M145 41H93h52z"/><defs><circle id="SVGID_1_" cx="145" cy="41" r="11"/></defs><clipPath id="SVGID_2_"><use xlink:href="#SVGID_1_" overflow="visible"/></clipPath><circle class="st2" cx="145" cy="41" r="11"/><defs><circle id="SVGID_3_" cx="145" cy="41" r="11"/></defs><clipPath id="SVGID_4_"><use xlink:href="#SVGID_3_" overflow="visible"/></clipPath><path class="st3" d="M134 30h22v22h-22z"/><g><defs><circle id="SVGID_5_" cx="145" cy="41" r="11"/></defs><clipPath id="SVGID_6_"><use xlink:href="#SVGID_5_" overflow="visible"/></clipPath><path class="st4" d="M134 30h22v22h-22z"/></g><circle class="st1" cx="145" cy="41" r="11"/><g><path class="st1" d="M93 41H41h52z"/></g><g><defs><circle id="SVGID_7_" cx="93" cy="41" r="11"/></defs><clipPath id="SVGID_8_"><use xlink:href="#SVGID_7_" overflow="visible"/></clipPath><circle class="st5" cx="93" cy="41" r="11"/><defs><circle id="SVGID_9_" cx="93" cy="41" r="11"/></defs><clipPath id="SVGID_10_"><use xlink:href="#SVGID_9_" overflow="visible"/></clipPath><path class="st6" d="M82 30h22v22H82z"/><g><defs><circle id="SVGID_11_" cx="93" cy="41" r="11"/></defs><clipPath id="SVGID_12_"><use xlink:href="#SVGID_11_" overflow="visible"/></clipPath><path class="st7" d="M82 30h22v22H82z"/></g><circle class="st1" cx="93" cy="41" r="11"/></g><g><defs><path id="SVGID_13_" d="M30 30h22v22H30z"/></defs><clipPath id="SVGID_14_"><use xlink:href="#SVGID_13_" overflow="visible"/></clipPath><path class="st8" d="M30 30h22v22H30z"/><defs><path id="SVGID_15_" d="M30 30h22v22H30z"/></defs><clipPath id="SVGID_16_"><use xlink:href="#SVGID_15_" overflow="visible"/></clipPath><path class="st9" d="M30 30h22v22H30z"/><g><defs><path id="SVGID_17_" d="M30 30h22v22H30z"/></defs><clipPath id="SVGID_18_"><use xlink:href="#SVGID_17_" overflow="visible"/></clipPath><path class="st10" d="M30 30h22v22H30z"/></g><path class="st1" d="M30 30h22v22H30z"/></g><g><path class="st0" d="M70 44h6v11h-6z"/><path d="M70.7 47.5c.3-.6.6-1.1 1-1.5.4-.3.9-.5 1.5-.5.7 0 1.3.2 1.7.7.3.4.5.7.5 1.2 0 .7-.4 1.4-1.3 2.1.6.2 1 .5 1.3 1 .3.4.4.9.4 1.5 0 .8-.3 1.5-.8 2.1-.7.8-1.6 1.2-2.9 1.2-.6 0-1.1-.1-1.3-.2-.2-.2-.3-.3-.3-.5 0-.1.1-.3.2-.4.1-.1.2-.1.4-.1h.4c.1 0 .2.1.5.2s.5.2.6.3c.2 0 .3.1.5.1.5 0 .9-.2 1.2-.5.3-.4.5-.8.5-1.3 0-.4-.1-.7-.2-1-.1-.3-.3-.5-.4-.6-.2-.2-.5-.3-.8-.5s-.7-.2-1-.2h-.2v-.2c.4 0 .7-.2 1.1-.4.4-.2.6-.5.8-.8.2-.3.2-.6.2-1 0-.5-.1-.8-.4-1.1-.3-.3-.7-.4-1.1-.4-.7 0-1.3.4-1.8 1.1l-.3-.3z"/><path class="st0" d="M57 43h7v13h-7z"/><path d="M58.9 59h-1.1c.2-.8.2-1.5.2-2.1v-7.5c0-.8.1-1.3.2-1.7.1-.4.4-.7.8-1 .4-.3.9-.4 1.5-.4.7 0 1.3.2 1.8.6.5.4.7.9.7 1.6 0 .8-.4 1.5-1.2 2 1.2.6 1.7 1.4 1.7 2.6 0 .6-.2 1.2-.5 1.7s-.7.9-1.1 1.1c-.4.2-.9.3-1.4.3-.6 0-1.2-.2-1.6-.7v1.3c.2.8.1 1.6 0 2.2zm.2-4.1c.4.6.8.9 1.5.9.6 0 1.1-.2 1.4-.7.3-.4.4-1 .4-1.6 0-.5-.1-1-.3-1.5-.2-.5-.4-.9-.7-1.2-.3.1-.5.1-.7.1-.5 0-.7-.1-.7-.4 0-.2.2-.3.6-.3.2 0 .5.1.9.2.3-.6.5-1.1.5-1.8 0-.6-.1-1-.4-1.3-.2-.3-.6-.5-1-.5-.3 0-.6.1-.8.3-.2.2-.4.4-.5.6-.1.2-.1.7-.1 1.2v6z"/></g><g><path class="st0" d="M121 45h7v10h-7z"/><path d="M127.5 51.6v1h-1.2V55h-1.1v-2.5h-3.9v-.9l4.3-6.1h.8v6h1.1zm-2.4 0V47l-3.2 4.6h3.2z"/><path class="st0" d="M109 43h7v13h-7z"/><path d="M110.9 59h-1.1c.2-.8.2-1.5.2-2.1v-7.5c0-.8.1-1.3.2-1.7.1-.4.4-.7.8-1 .4-.3.9-.4 1.5-.4.7 0 1.3.2 1.8.6.5.4.7.9.7 1.6 0 .8-.4 1.5-1.2 2 1.2.6 1.7 1.4 1.7 2.6 0 .6-.2 1.2-.5 1.7s-.7.9-1.1 1.1c-.4.2-.9.3-1.4.3-.6 0-1.2-.2-1.6-.7v1.3c.2.8.1 1.6 0 2.2zm.2-4.1c.4.6.8.9 1.5.9.6 0 1.1-.2 1.4-.7.3-.4.4-1 .4-1.6 0-.5-.1-1-.3-1.5-.2-.5-.4-.9-.7-1.2-.3.1-.5.1-.7.1-.5 0-.7-.1-.7-.4 0-.2.2-.3.6-.3.2 0 .5.1.9.2.3-.6.5-1.1.5-1.8 0-.6-.1-1-.4-1.3-.2-.3-.6-.5-1-.5-.3 0-.6.1-.8.3-.2.2-.4.4-.5.6-.1.2-.1.7-.1 1.2v6z"/></g></svg>