<svg xmlns="http://www.w3.org/2000/svg" xmlns:xlink="http://www.w3.org/1999/xlink" id="Layer_1" viewBox="0 0 290 82"><style>.st0{fill:#fff}.st1{fill:none;stroke:#000;stroke-linecap:square;stroke-miterlimit:10}.st2{clip-path:url(#SVGID_2_);fill:#fff}.st3{clip-path:url(#SVGID_4_);fill:#0000fa}.st4{clip-path:url(#SVGID_6_);fill:none;stroke:#000;stroke-linecap:square;stroke-miterlimit:10}.st5{clip-path:url(#SVGID_8_);fill:#fff}.st6{clip-path:url(#SVGID_10_);fill:#0000fa}.st7{clip-path:url(#SVGID_12_);fill:none;stroke:#000;stroke-linecap:square;stroke-miterlimit:10}.st8{clip-path:url(#SVGID_14_);fill:#fff}.st9{clip-path:url(#SVGID_16_);fill:#00c832}.st10{clip-path:url(#SVGID_18_);fill:none;stroke:#000;stroke-linecap:square;stroke-miterlimit:10}.st11{clip-path:url(#SVGID_20_);fill:#fff}.st12{clip-path:url(#SVGID_22_);fill:#00c832}.st13{clip-path:url(#SVGID_24_);fill:none;stroke:#000;stroke-linecap:square;stroke-miterlimit:10}.st14{clip-path:url(#SVGID_26_);fill:#fff}.st15{clip-path:url(#SVGID_28_);fill:#0000fa}.st16{clip-path:url(#SVGID_30_);fill:none;stroke:#000;stroke-linecap:square;stroke-miterlimit:10}</style><path class="st0" d="M0 0h290v82H0z"/><path class="st1" d="M249 41h-52 52z"/><defs><path id="SVGID_1_" d="M238 30h22v22h-22z"/></defs><clipPath id="SVGID_2_"><use xlink:href="#SVGID_1_" overflow="visible"/></clipPath><path class="st2" d="M238 30h22v22h-22z"/><defs><path id="SVGID_3_" d="M238 30h22v22h-22z"/></defs><clipPath id="SVGID_4_"><use xlink:href="#SVGID_3_" overflow="visible"/></clipPath><path class="st3" d="M238 30h22v22h-22z"/><defs><path id="SVGID_5_" d="M238 30h22v22h-22z"/></defs><clipPath id="SVGID_6_"><use xlink:href="#SVGID_5_" overflow="visible"/></clipPath><path class="st4" d="M238 30h22v22h-22z"/><path class="st1" d="M238 30h22v22h-22zM197 41h-52 52z"/><defs><path id="SVGID_7_" d="M186 30h22v22h-22z"/></defs><clipPath id="SVGID_8_"><use xlink:href="#SVGID_7_" overflow="visible"/></clipPath><path class="st5" d="M186 30h22v22h-22z"/><defs><path id="SVGID_9_" d="M186 30h22v22h-22z"/></defs><clipPath id="SVGID_10_"><use xlink:href="#SVGID_9_" overflow="visible"/></clipPath><path class="st6" d="M186 30h22v22h-22z"/><g><defs><path id="SVGID_11_" d="M186 30h22v22h-22z"/></defs><clipPath id="SVGID_12_"><use xlink:href="#SVGID_11_" overflow="visible"/></clipPath><path class="st7" d="M186 30h22v22h-22z"/></g><path class="st1" d="M186 30h22v22h-22z"/><g><path class="st1" d="M145 41H93h52z"/></g><g><defs><circle id="SVGID_13_" cx="145" cy="41" r="11"/></defs><clipPath id="SVGID_14_"><use xlink:href="#SVGID_13_" overflow="visible"/></clipPath><circle class="st8" cx="145" cy="41" r="11"/><defs><circle id="SVGID_15_" cx="145" cy="41" r="11"/></defs><clipPath id="SVGID_16_"><use xlink:href="#SVGID_15_" overflow="visible"/></clipPath><path class="st9" d="M134 30h22v22h-22z"/><g><defs><circle id="SVGID_17_" cx="145" cy="41" r="11"/></defs><clipPath id="SVGID_18_"><use xlink:href="#SVGID_17_" overflow="visible"/></clipPath><path class="st10" d="M134 30h22v22h-22z"/></g><circle class="st1" cx="145" cy="41" r="11"/></g><g><path class="st1" d="M93 41H41h52z"/></g><g><defs><circle id="SVGID_19_" cx="93" cy="41" r="11"/></defs><clipPath id="SVGID_20_"><use xlink:href="#SVGID_19_" overflow="visible"/></clipPath><circle class="st11" cx="93" cy="41" r="11"/><defs><circle id="SVGID_21_" cx="93" cy="41" r="11"/></defs><clipPath id="SVGID_22_"><use xlink:href="#SVGID_21_" overflow="visible"/></clipPath><path class="st12" d="M82 30h22v22H82z"/><g><defs><circle id="SVGID_23_" cx="93" cy="41" r="11"/></defs><clipPath id="SVGID_24_"><use xlink:href="#SVGID_23_" overflow="visible"/></clipPath><path class="st13" d="M82 30h22v22H82z"/></g><circle class="st1" cx="93" cy="41" r="11"/></g><g><defs><path id="SVGID_25_" d="M30 30h22v22H30z"/></defs><clipPath id="SVGID_26_"><use xlink:href="#SVGID_25_" overflow="visible"/></clipPath><path class="st14" d="M30 30h22v22H30z"/><defs><path id="SVGID_27_" d="M30 30h22v22H30z"/></defs><clipPath id="SVGID_28_"><use xlink:href="#SVGID_27_" overflow="visible"/></clipPath><path class="st15" d="M30 30h22v22H30z"/><g><defs><path id="SVGID_29_" d="M30 30h22v22H30z"/></defs><clipPath id="SVGID_30_"><use xlink:href="#SVGID_29_" overflow="visible"/></clipPath><path class="st16" d="M30 30h22v22H30z"/></g><path class="st1" d="M30 30h22v22H30z"/></g><g><path class="st0" d="M71 44h6v9h-6z"/><path d="M76.5 51.5L76 53h-4.7v-.2c1.4-1.3 2.3-2.3 2.9-3.1.6-.8.8-1.5.8-2.2 0-.5-.2-.9-.5-1.2s-.7-.5-1.1-.5c-.4 0-.7.1-1 .3-.3.2-.5.6-.7 1h-.2c.1-.7.4-1.3.8-1.7.4-.4.9-.6 1.5-.6s1.2.2 1.6.6c.4.4.6.9.6 1.5 0 .4-.1.8-.3 1.2-.3.6-.8 1.3-1.4 2-1 1.1-1.6 1.7-1.8 1.9h3c.2 0 .3-.1.5-.2s.3-.2.4-.4h.1z"/><path class="st0" d="M57 43h6v12h-6z"/><path d="M58.6 57.6h-1c.1-.7.2-1.3.2-1.8v-6.4c0-.7.1-1.2.2-1.5.1-.3.4-.6.7-.9s.8-.4 1.3-.4c.6 0 1.1.2 1.6.5.4.3.6.8.6 1.4 0 .7-.3 1.3-1 1.7 1 .5 1.5 1.2 1.5 2.2 0 .5-.1 1-.4 1.5-.3.4-.6.7-.9.9-.3.2-.8.3-1.2.3-.5 0-1-.2-1.3-.6v1.1c-.1.8-.1 1.4-.3 2zm.2-3.6c.3.5.7.8 1.3.8.5 0 .9-.2 1.2-.6.2-.4.4-.9.4-1.4 0-.4-.1-.9-.2-1.3-.2-.4-.4-.8-.6-1-.2.1-.5.1-.6.1-.4 0-.6-.1-.6-.3 0-.2.2-.3.5-.3.2 0 .5 0 .8.1.3-.5.4-1 .4-1.5s-.1-.9-.3-1.1c-.2-.3-.5-.4-.9-.4-.3 0-.5.1-.7.2-.2.2-.3.3-.4.6s-.1.6-.1 1.1v5z"/></g><g><path class="st0" d="M123 44h5v10h-5z"/><path d="M123.6 47.6c.2-.5.5-.9.9-1.2.3-.3.8-.4 1.3-.4.6 0 1.1.2 1.5.6.3.3.4.6.4 1 0 .6-.4 1.2-1.1 1.8.5.2.9.5 1.1.8.2.4.4.8.4 1.3 0 .7-.2 1.3-.7 1.8-.6.7-1.4 1-2.5 1-.5 0-.9-.1-1.1-.2-.2-.1-.3-.3-.3-.4 0-.1 0-.2.1-.3.1-.1.2-.1.3-.1h.3c.1 0 .2.1.5.2.2.1.4.2.5.2.1 0 .3.1.5.1.4 0 .7-.2 1-.5.3-.3.4-.7.4-1.1 0-.3-.1-.6-.2-.9-.1-.2-.2-.4-.3-.5-.2-.2-.4-.3-.7-.4-.3-.1-.6-.2-.9-.2h-.2V50c.3 0 .6-.1.9-.3.3-.2.5-.4.7-.7.1-.3.2-.5.2-.9s-.1-.7-.4-1-.6-.4-.9-.4c-.6 0-1.1.3-1.5 1l-.2-.1z"/><path class="st0" d="M108 45h7v7h-7z"/><path d="M112.6 46.6h1l-.6 2.7c-.1.5-.2.8-.2 1 .2.7.4 1.1.7 1.1.4 0 .5-.2.5-.7h.2c0 .5-.1.8-.2 1.1-.2.3-.4.4-.6.4-.2 0-.3-.1-.5-.3-.1-.2-.2-.5-.3-1-.4.9-1.1 1.3-2 1.3-.6 0-1.1-.2-1.5-.7-.4-.5-.6-1.2-.6-2.1 0-.9.2-1.6.6-2.1s.9-.8 1.5-.8c.4 0 .7.1 1 .4.3.3.5.8.7 1.4l.3-1.7zm-.5 2.3c-.2-.6-.4-1.1-.6-1.5-.2-.4-.5-.5-.8-.5-.7 0-1.1.8-1.1 2.5 0 1.6.3 2.4 1 2.4.6 0 1-.7 1.3-2.1l.2-.8z"/></g><g><path class="st0" d="M175 44h6v9h-6z"/><path d="M180.6 50.1v.8h-1.1V53h-1v-2.1h-3.4v-.8l3.7-5.3h.6V50h1.2zm-2.1 0v-3.9l-2.8 3.9h2.8z"/><path class="st0" d="M161 43h6v12h-6z"/><path d="M162.6 57.6h-1c.1-.7.2-1.3.2-1.8v-6.4c0-.7.1-1.2.2-1.5.1-.3.4-.6.7-.9s.8-.4 1.3-.4c.6 0 1.1.2 1.6.5.4.3.6.8.6 1.4 0 .7-.3 1.3-1 1.7 1 .5 1.5 1.2 1.5 2.2 0 .5-.1 1-.4 1.5-.3.4-.6.7-.9.9-.3.2-.8.3-1.2.3-.5 0-1-.2-1.3-.6v1.1c-.1.8-.1 1.4-.3 2zm.2-3.6c.3.5.7.8 1.3.8.5 0 .9-.2 1.2-.6.2-.4.4-.9.4-1.4 0-.4-.1-.9-.2-1.3s-.4-.8-.6-1c-.2.1-.5.1-.6.1-.4 0-.6-.1-.6-.3 0-.2.2-.3.5-.3.2 0 .5 0 .8.1.3-.5.4-1 .4-1.5s-.1-.9-.3-1.1c-.2-.3-.5-.4-.9-.4-.3 0-.5.1-.7.2-.2.2-.3.3-.4.6s-.1.6-.1 1.1v5z"/></g><g><path class="st0" d="M227 44h6v9h-6z"/><path d="M232.6 50.1v.8h-1.1V53h-1v-2.1h-3.4v-.8l3.7-5.3h.6V50h1.2zm-2.1 0v-3.9l-2.8 3.9h2.8z"/><path class="st0" d="M213 43h6v12h-6z"/><path d="M214.6 57.6h-1c.1-.7.2-1.3.2-1.8v-6.4c0-.7.1-1.2.2-1.5.1-.3.4-.6.7-.9.3-.2.8-.4 1.3-.4.6 0 1.1.2 1.6.5.4.3.6.8.6 1.4 0 .7-.3 1.3-1 1.7 1 .5 1.5 1.2 1.5 2.2 0 .5-.1 1-.4 1.5-.3.4-.6.7-.9.9-.3.2-.8.3-1.2.3-.5 0-1-.2-1.3-.6v1.1c-.1.8-.1 1.4-.3 2zm.2-3.6c.3.5.7.8 1.3.8.5 0 .9-.2 1.2-.6.2-.4.4-.9.4-1.4 0-.4-.1-.9-.2-1.3s-.4-.8-.6-1c-.2.1-.5.1-.6.1-.4 0-.6-.1-.6-.3 0-.2.2-.3.5-.3.2 0 .5 0 .8.1.3-.5.4-1 .4-1.5s-.1-.9-.3-1.1c-.2-.3-.5-.4-.9-.4-.3 0-.5.1-.7.2-.2.2-.3.3-.4.6s-.1.6-.1 1.1v5z"/></g></svg>