<svg xmlns="http://www.w3.org/2000/svg" xmlns:xlink="http://www.w3.org/1999/xlink" id="svg5194" viewBox="0 0 202.1 134"><style>.st0{fill:#fff}.st1{fill:none;stroke:#000;stroke-linecap:square;stroke-miterlimit:10}.st2{clip-path:url(#SVGID_2_);fill:#fff}.st3{clip-path:url(#SVGID_4_);fill:#0000fa}.st4{clip-path:url(#SVGID_6_);fill:none;stroke:#000;stroke-linecap:square;stroke-miterlimit:10}.st5{clip-path:url(#SVGID_8_);fill:#fff}.st6{clip-path:url(#SVGID_10_);fill:#fa0000}.st7{clip-path:url(#SVGID_12_);fill:none;stroke:#000;stroke-linecap:square;stroke-miterlimit:10}.st8{clip-path:url(#SVGID_14_);fill:#fff}.st9{clip-path:url(#SVGID_16_);fill:#ff0}.st10{clip-path:url(#SVGID_18_);fill:none;stroke:#000;stroke-linecap:square;stroke-miterlimit:10}.st11{clip-path:url(#SVGID_20_);fill:#fff}.st12{clip-path:url(#SVGID_22_);fill:#c800c8}.st13{clip-path:url(#SVGID_24_);fill:none;stroke:#000;stroke-linecap:square;stroke-miterlimit:10}.st14{font-family:'Helvetica'}.st15{font-size:18.6667px}</style><g id="g5192"><g id="g5108"><path id="rect5106" class="st0" d="M0 0h186v134H0z"/></g><g id="g5112"><path id="polygon5110" class="st1" d="M145 41v52-52z"/></g><g id="g5116"><path id="polygon5114" class="st1" d="M145 41H93h52z"/></g><g id="g5126"><defs><path id="SVGID_1_" d="M134 30h22v22h-22z"/></defs><clipPath id="SVGID_2_"><use xlink:href="#SVGID_1_" overflow="visible"/></clipPath><path id="rect5118" class="st2" d="M134 30h22v22h-22z"/><defs><path id="SVGID_3_" d="M134 30h22v22h-22z"/></defs><clipPath id="SVGID_4_"><use xlink:href="#SVGID_3_" overflow="visible"/></clipPath><path id="rect5120" class="st3" d="M134 30h22v22h-22z"/><g><defs><path id="SVGID_5_" d="M134 30h22v22h-22z"/></defs><clipPath id="SVGID_6_"><use xlink:href="#SVGID_5_" overflow="visible"/></clipPath><path id="rect5122" class="st4" d="M134 30h22v22h-22z"/></g><path id="rect5124" class="st1" d="M134 30h22v22h-22z"/></g><g id="g5136"><defs><path id="SVGID_7_" d="M145 82l11 22h-22z"/></defs><clipPath id="SVGID_8_"><use xlink:href="#SVGID_7_" overflow="visible"/></clipPath><path id="polygon5128" class="st5" d="M145 82l11 22h-22z"/><defs><path id="SVGID_9_" d="M145 82l11 22h-22z"/></defs><clipPath id="SVGID_10_"><use xlink:href="#SVGID_9_" overflow="visible"/></clipPath><path id="rect5130" class="st6" d="M134 82h22v22h-22z"/><g><defs><path id="SVGID_11_" d="M145 82l11 22h-22z"/></defs><clipPath id="SVGID_12_"><use xlink:href="#SVGID_11_" overflow="visible"/></clipPath><path id="rect5132" class="st7" d="M134 82h22v22h-22z"/></g><path id="polygon5134" class="st1" d="M145 82l11 22h-22z"/></g><g id="g5140"><path id="polygon5138" class="st1" d="M93 41H41h52z"/></g><g id="g5150"><defs><circle id="SVGID_13_" cx="93" cy="41" r="11"/></defs><clipPath id="SVGID_14_"><use xlink:href="#SVGID_13_" overflow="visible"/></clipPath><circle id="circle5142" class="st8" cx="93" cy="41" r="11"/><defs><circle id="SVGID_15_" cx="93" cy="41" r="11"/></defs><clipPath id="SVGID_16_"><use xlink:href="#SVGID_15_" overflow="visible"/></clipPath><path id="rect5144" class="st9" d="M82 30h22v22H82z"/><g><defs><circle id="SVGID_17_" cx="93" cy="41" r="11"/></defs><clipPath id="SVGID_18_"><use xlink:href="#SVGID_17_" overflow="visible"/></clipPath><path id="rect5146" class="st10" d="M82 30h22v22H82z"/></g><circle id="circle5148" class="st1" cx="93" cy="41" r="11"/></g><g id="g5160"><defs><path id="SVGID_19_" transform="rotate(-45.001 41 41)" d="M33.2 33.2h15.6v15.6H33.2z"/></defs><clipPath id="SVGID_20_"><use xlink:href="#SVGID_19_" overflow="visible"/></clipPath><path id="polygon5152" class="st11" d="M41 30l11 11-11 11-11-11z"/><defs><path id="SVGID_21_" transform="rotate(-45.001 41 41)" d="M33.2 33.2h15.6v15.6H33.2z"/></defs><clipPath id="SVGID_22_"><use xlink:href="#SVGID_21_" overflow="visible"/></clipPath><path id="rect5154" class="st12" d="M30 30h22v22H30z"/><g><defs><path id="SVGID_23_" transform="rotate(-45.001 41 41)" d="M33.2 33.2h15.6v15.6H33.2z"/></defs><clipPath id="SVGID_24_"><use xlink:href="#SVGID_23_" overflow="visible"/></clipPath><path id="rect5156" class="st13" d="M30 30h22v22H30z"/></g><path id="polygon5158" class="st1" d="M41 30l11 11-11 11-11-11z"/></g><g id="g5170"><path id="rect5162" class="st0" d="M70 44h6v11h-6z"/><path id="path5164" d="M70.7 47.5c.3-.6.6-1.1 1-1.5.4-.3.9-.5 1.5-.5.7 0 1.3.2 1.7.7.3.4.5.7.5 1.2 0 .7-.4 1.4-1.3 2.1.6.2 1 .5 1.3 1 .3.4.4.9.4 1.5 0 .8-.3 1.5-.8 2.1-.7.8-1.6 1.2-2.9 1.2-.6 0-1.1-.1-1.3-.2-.2-.2-.3-.3-.3-.5 0-.1.1-.3.2-.4.1-.1.2-.1.4-.1h.4c.1 0 .2.1.5.2s.5.2.6.3c.2 0 .3.1.5.1.5 0 .9-.2 1.2-.5.3-.4.5-.8.5-1.3 0-.4-.1-.7-.2-1-.1-.3-.3-.5-.4-.6-.2-.2-.5-.3-.8-.5s-.7-.2-1-.2h-.2v-.2c.4 0 .7-.2 1.1-.4.4-.2.6-.5.8-.8.2-.3.2-.6.2-1 0-.5-.1-.8-.4-1.1-.3-.3-.7-.4-1.1-.4-.7 0-1.3.4-1.8 1.1l-.3-.3z"/><path id="rect5166" class="st0" d="M57 46h8v8h-8z"/><path id="path5168" d="M62.4 47.7h1.2l-.7 3.2c-.1.6-.2 1-.3 1.1.2.8.5 1.2.8 1.2.4 0 .6-.3.6-.8h.2c0 .5-.1 1-.3 1.3-.2.3-.4.5-.7.5-.2 0-.4-.1-.5-.3-.1-.2-.2-.6-.4-1.2-.5 1-1.2 1.5-2.3 1.5-.7 0-1.3-.3-1.8-.9-.4-.6-.6-1.4-.6-2.5s.2-1.9.7-2.5c.5-.6 1-.9 1.7-.9.5 0 .9.2 1.2.5.3.3.6.9.8 1.6l.4-1.8zm-.6 2.7c-.2-.7-.4-1.3-.7-1.7-.3-.4-.6-.6-.9-.6-.8 0-1.3 1-1.3 2.9s.4 2.8 1.2 2.8c.7 0 1.2-.8 1.5-2.5l.2-.9z"/></g><g id="g5180"><path id="rect5172" class="st0" d="M151 55h6v11h-6z"/><path id="path5174" d="M151.7 58.5c.3-.6.6-1.1 1-1.5.4-.3.9-.5 1.5-.5.7 0 1.3.2 1.7.7.3.4.5.7.5 1.2 0 .7-.4 1.4-1.3 2.1.6.2 1 .5 1.3 1 .3.4.4.9.4 1.5 0 .8-.3 1.5-.8 2.1-.7.8-1.6 1.2-2.9 1.2-.6 0-1.1-.1-1.3-.2-.2-.2-.3-.3-.3-.5 0-.1.1-.3.2-.4.1-.1.2-.1.4-.1h.4c.1 0 .2.1.5.2s.5.2.6.3c.2 0 .3.1.5.1.5 0 .9-.2 1.2-.5.3-.4.5-.8.5-1.3 0-.4-.1-.7-.2-1-.1-.3-.3-.5-.4-.6-.2-.2-.5-.3-.8-.5s-.7-.2-1-.2h-.2v-.2c.4 0 .7-.2 1.1-.4.4-.2.6-.5.8-.8.2-.3.2-.6.2-1 0-.5-.1-.8-.4-1.1-.3-.3-.7-.4-1.1-.4-.7 0-1.3.4-1.8 1.1l-.3-.3z"/><path id="rect5176" class="st0" d="M150 69h8v8h-8z"/><path id="path5178" d="M155.4 70.7h1.2l-.7 3.2c-.1.6-.2 1-.3 1.1.2.8.5 1.2.8 1.2.4 0 .6-.3.6-.8h.2c0 .5-.1 1-.3 1.3-.2.3-.4.5-.7.5-.2 0-.4-.1-.5-.3-.1-.2-.2-.6-.4-1.2-.5 1-1.2 1.5-2.3 1.5-.7 0-1.3-.3-1.8-.9-.4-.6-.6-1.4-.6-2.5s.2-1.9.7-2.5c.5-.6 1-.9 1.7-.9.5 0 .9.2 1.2.5.3.3.6.9.8 1.6l.4-1.8zm-.6 2.7c-.2-.7-.4-1.3-.7-1.7-.3-.4-.6-.6-.9-.6-.8 0-1.3 1-1.3 2.9s.4 2.8 1.2 2.8c.7 0 1.2-.8 1.5-2.5l.2-.9z"/></g><g id="g5190"><path id="rect5182" class="st0" d="M121 45h7v10h-7z"/><path id="path5184" d="M127.5 51.6v1h-1.2V55h-1.1v-2.5h-3.9v-.9l4.3-6.1h.8v6h1.1zm-2.4 0V47l-3.2 4.6h3.2z"/><path id="rect5186" class="st0" d="M109 43h7v13h-7z"/><path id="path5188" d="M110.9 59h-1.1c.2-.8.2-1.5.2-2.1v-7.5c0-.8.1-1.3.2-1.7.1-.4.4-.7.8-1 .4-.3.9-.4 1.5-.4.7 0 1.3.2 1.8.6.5.4.7.9.7 1.6 0 .8-.4 1.5-1.2 2 1.2.6 1.7 1.4 1.7 2.6 0 .6-.2 1.2-.5 1.7s-.7.9-1.1 1.1c-.4.2-.9.3-1.4.3-.6 0-1.2-.2-1.6-.7v1.3c.2.8.1 1.6 0 2.2zm.2-4.1c.4.6.8.9 1.5.9.6 0 1.1-.2 1.4-.7.3-.4.4-1 .4-1.6 0-.5-.1-1-.3-1.5-.2-.5-.4-.9-.7-1.2-.3.1-.5.1-.7.1-.5 0-.7-.1-.7-.4 0-.2.2-.3.6-.3.2 0 .5.1.9.2.3-.6.5-1.1.5-1.8 0-.6-.1-1-.4-1.3-.2-.3-.6-.5-1-.5-.3 0-.6.1-.8.3-.2.2-.4.4-.5.6-.1.2-.1.7-.1 1.2v6z"/></g></g><text transform="translate(155.422 46.616)" class="st14 st15">-OMe</text></svg>